<mxfile host="app.diagrams.net" modified="2021-10-08T08:43:41.170Z" agent="5.0 (Windows NT 10.0; Win64; x64) AppleWebKit/537.36 (KHTML, like Gecko) Chrome/94.0.4606.61 Safari/537.36 OPR/80.0.4170.16 (Edition Campaign 34)" etag="Zz5-E9zq8cmwwpM6nv-v" version="15.4.3" type="github">
  <diagram id="R2lEEEUBdFMjLlhIrx00" name="Page-1">
    <mxGraphModel dx="828" dy="483" grid="1" gridSize="10" guides="1" tooltips="1" connect="1" arrows="1" fold="1" page="1" pageScale="1" pageWidth="850" pageHeight="1100" background="#114B5F" math="0" shadow="0" extFonts="Permanent Marker^https://fonts.googleapis.com/css?family=Permanent+Marker">
      <root>
        <mxCell id="0" />
        <mxCell id="1" parent="0" />
        <mxCell id="yDDBWvmq5abKbzwq8GcZ-3" style="rounded=1;sketch=0;orthogonalLoop=1;jettySize=auto;html=1;exitX=0.25;exitY=1;exitDx=0;exitDy=0;entryX=0.5;entryY=0;entryDx=0;entryDy=0;fontColor=#E4FDE1;strokeColor=#028090;fillColor=#F45B69;labelBackgroundColor=#114B5F;" parent="1" source="yDDBWvmq5abKbzwq8GcZ-1" target="yDDBWvmq5abKbzwq8GcZ-2" edge="1">
          <mxGeometry relative="1" as="geometry" />
        </mxCell>
        <mxCell id="yDDBWvmq5abKbzwq8GcZ-5" style="edgeStyle=orthogonalEdgeStyle;curved=0;rounded=1;sketch=0;orthogonalLoop=1;jettySize=auto;html=1;exitX=1;exitY=0.5;exitDx=0;exitDy=0;fontColor=#E4FDE1;strokeColor=#028090;fillColor=#F45B69;labelBackgroundColor=#114B5F;" parent="1" source="yDDBWvmq5abKbzwq8GcZ-1" target="yDDBWvmq5abKbzwq8GcZ-4" edge="1">
          <mxGeometry relative="1" as="geometry" />
        </mxCell>
        <mxCell id="yDDBWvmq5abKbzwq8GcZ-8" style="rounded=1;sketch=0;orthogonalLoop=1;jettySize=auto;html=1;exitX=1;exitY=1;exitDx=0;exitDy=0;entryX=0.22;entryY=0.125;entryDx=0;entryDy=0;entryPerimeter=0;fontColor=#E4FDE1;strokeColor=#028090;fillColor=#F45B69;labelBackgroundColor=#114B5F;" parent="1" source="yDDBWvmq5abKbzwq8GcZ-1" target="yDDBWvmq5abKbzwq8GcZ-7" edge="1">
          <mxGeometry relative="1" as="geometry" />
        </mxCell>
        <mxCell id="yDDBWvmq5abKbzwq8GcZ-1" value="university" style="whiteSpace=wrap;html=1;align=center;rounded=0;sketch=0;fontColor=#E4FDE1;strokeColor=#028090;fillColor=#F45B69;" parent="1" vertex="1">
          <mxGeometry x="80" y="160" width="100" height="40" as="geometry" />
        </mxCell>
        <mxCell id="yDDBWvmq5abKbzwq8GcZ-2" value="univerity_ID" style="ellipse;whiteSpace=wrap;html=1;align=center;fontStyle=4;rounded=0;sketch=0;fontColor=#E4FDE1;strokeColor=#028090;fillColor=#F45B69;" parent="1" vertex="1">
          <mxGeometry x="40" y="240" width="100" height="40" as="geometry" />
        </mxCell>
        <mxCell id="yDDBWvmq5abKbzwq8GcZ-4" value="name" style="ellipse;whiteSpace=wrap;html=1;align=center;rounded=0;sketch=0;fontColor=#E4FDE1;strokeColor=#028090;fillColor=#F45B69;" parent="1" vertex="1">
          <mxGeometry x="240" y="160" width="100" height="40" as="geometry" />
        </mxCell>
        <mxCell id="yDDBWvmq5abKbzwq8GcZ-11" style="edgeStyle=orthogonalEdgeStyle;curved=0;rounded=1;sketch=0;orthogonalLoop=1;jettySize=auto;html=1;exitX=1;exitY=0.5;exitDx=0;exitDy=0;entryX=0;entryY=0.5;entryDx=0;entryDy=0;fontColor=#E4FDE1;strokeColor=#028090;fillColor=#F45B69;labelBackgroundColor=#114B5F;" parent="1" source="yDDBWvmq5abKbzwq8GcZ-7" target="yDDBWvmq5abKbzwq8GcZ-10" edge="1">
          <mxGeometry relative="1" as="geometry" />
        </mxCell>
        <mxCell id="yDDBWvmq5abKbzwq8GcZ-12" style="edgeStyle=orthogonalEdgeStyle;curved=0;rounded=1;sketch=0;orthogonalLoop=1;jettySize=auto;html=1;exitX=0.5;exitY=1;exitDx=0;exitDy=0;entryX=0.5;entryY=0;entryDx=0;entryDy=0;fontColor=#E4FDE1;strokeColor=#028090;fillColor=#F45B69;labelBackgroundColor=#114B5F;" parent="1" source="yDDBWvmq5abKbzwq8GcZ-7" target="yDDBWvmq5abKbzwq8GcZ-9" edge="1">
          <mxGeometry relative="1" as="geometry" />
        </mxCell>
        <mxCell id="yDDBWvmq5abKbzwq8GcZ-7" value="adress" style="ellipse;whiteSpace=wrap;html=1;align=center;rounded=0;sketch=0;fontColor=#E4FDE1;strokeColor=#028090;fillColor=#F45B69;" parent="1" vertex="1">
          <mxGeometry x="180" y="220" width="100" height="40" as="geometry" />
        </mxCell>
        <mxCell id="yDDBWvmq5abKbzwq8GcZ-9" value="street" style="ellipse;whiteSpace=wrap;html=1;align=center;rounded=0;sketch=0;fontColor=#E4FDE1;strokeColor=#028090;fillColor=#F45B69;" parent="1" vertex="1">
          <mxGeometry x="180" y="290" width="100" height="40" as="geometry" />
        </mxCell>
        <mxCell id="yDDBWvmq5abKbzwq8GcZ-10" value="city" style="ellipse;whiteSpace=wrap;html=1;align=center;rounded=0;sketch=0;fontColor=#E4FDE1;strokeColor=#028090;fillColor=#F45B69;" parent="1" vertex="1">
          <mxGeometry x="340" y="220" width="100" height="40" as="geometry" />
        </mxCell>
        <mxCell id="yDDBWvmq5abKbzwq8GcZ-13" style="edgeStyle=none;rounded=1;sketch=0;orthogonalLoop=1;jettySize=auto;html=1;exitX=0;exitY=1;exitDx=0;exitDy=0;entryX=0.5;entryY=0;entryDx=0;entryDy=0;fontColor=#E4FDE1;strokeColor=#028090;fillColor=#F45B69;labelBackgroundColor=#114B5F;" parent="1" source="yDDBWvmq5abKbzwq8GcZ-17" target="yDDBWvmq5abKbzwq8GcZ-20" edge="1">
          <mxGeometry relative="1" as="geometry" />
        </mxCell>
        <mxCell id="yDDBWvmq5abKbzwq8GcZ-14" style="edgeStyle=none;rounded=1;sketch=0;orthogonalLoop=1;jettySize=auto;html=1;exitX=0.5;exitY=1;exitDx=0;exitDy=0;fontColor=#E4FDE1;strokeColor=#028090;fillColor=#F45B69;labelBackgroundColor=#114B5F;" parent="1" source="yDDBWvmq5abKbzwq8GcZ-17" target="yDDBWvmq5abKbzwq8GcZ-23" edge="1">
          <mxGeometry relative="1" as="geometry" />
        </mxCell>
        <mxCell id="yDDBWvmq5abKbzwq8GcZ-15" style="edgeStyle=none;rounded=1;sketch=0;orthogonalLoop=1;jettySize=auto;html=1;exitX=1;exitY=1;exitDx=0;exitDy=0;entryX=0;entryY=0.5;entryDx=0;entryDy=0;fontColor=#E4FDE1;strokeColor=#028090;fillColor=#F45B69;labelBackgroundColor=#114B5F;" parent="1" source="yDDBWvmq5abKbzwq8GcZ-17" target="yDDBWvmq5abKbzwq8GcZ-24" edge="1">
          <mxGeometry relative="1" as="geometry" />
        </mxCell>
        <mxCell id="yDDBWvmq5abKbzwq8GcZ-16" style="edgeStyle=none;rounded=1;sketch=0;orthogonalLoop=1;jettySize=auto;html=1;exitX=0;exitY=0.5;exitDx=0;exitDy=0;entryX=0.94;entryY=0.85;entryDx=0;entryDy=0;entryPerimeter=0;fontColor=#E4FDE1;strokeColor=#028090;fillColor=#F45B69;labelBackgroundColor=#114B5F;" parent="1" source="yDDBWvmq5abKbzwq8GcZ-17" target="yDDBWvmq5abKbzwq8GcZ-25" edge="1">
          <mxGeometry relative="1" as="geometry" />
        </mxCell>
        <mxCell id="yDDBWvmq5abKbzwq8GcZ-26" style="rounded=1;sketch=0;orthogonalLoop=1;jettySize=auto;html=1;exitX=1;exitY=0;exitDx=0;exitDy=0;fontColor=#E4FDE1;strokeColor=#028090;fillColor=#F45B69;startArrow=none;labelBackgroundColor=#114B5F;" parent="1" source="yDDBWvmq5abKbzwq8GcZ-27" edge="1">
          <mxGeometry relative="1" as="geometry">
            <mxPoint x="730" y="150" as="targetPoint" />
          </mxGeometry>
        </mxCell>
        <mxCell id="yDDBWvmq5abKbzwq8GcZ-29" style="edgeStyle=none;rounded=1;sketch=0;orthogonalLoop=1;jettySize=auto;html=1;exitX=1;exitY=0;exitDx=0;exitDy=0;entryX=0;entryY=1;entryDx=0;entryDy=0;fontColor=#E4FDE1;strokeColor=#028090;fillColor=#F45B69;labelBackgroundColor=#114B5F;" parent="1" source="yDDBWvmq5abKbzwq8GcZ-17" target="yDDBWvmq5abKbzwq8GcZ-27" edge="1">
          <mxGeometry relative="1" as="geometry" />
        </mxCell>
        <mxCell id="yDDBWvmq5abKbzwq8GcZ-17" value="dormitory" style="whiteSpace=wrap;html=1;align=center;rounded=0;sketch=0;fontColor=#E4FDE1;strokeColor=#028090;fillColor=#F45B69;" parent="1" vertex="1">
          <mxGeometry x="580" y="175" width="100" height="40" as="geometry" />
        </mxCell>
        <mxCell id="yDDBWvmq5abKbzwq8GcZ-18" style="edgeStyle=none;rounded=1;sketch=0;orthogonalLoop=1;jettySize=auto;html=1;exitX=1;exitY=1;exitDx=0;exitDy=0;entryX=0;entryY=0;entryDx=0;entryDy=0;fontColor=#E4FDE1;strokeColor=#028090;fillColor=#F45B69;labelBackgroundColor=#114B5F;" parent="1" source="yDDBWvmq5abKbzwq8GcZ-20" target="yDDBWvmq5abKbzwq8GcZ-21" edge="1">
          <mxGeometry relative="1" as="geometry" />
        </mxCell>
        <mxCell id="yDDBWvmq5abKbzwq8GcZ-19" style="edgeStyle=none;rounded=1;sketch=0;orthogonalLoop=1;jettySize=auto;html=1;exitX=0.5;exitY=1;exitDx=0;exitDy=0;entryX=0.5;entryY=0;entryDx=0;entryDy=0;fontColor=#E4FDE1;strokeColor=#028090;fillColor=#F45B69;labelBackgroundColor=#114B5F;" parent="1" source="yDDBWvmq5abKbzwq8GcZ-20" target="yDDBWvmq5abKbzwq8GcZ-22" edge="1">
          <mxGeometry relative="1" as="geometry" />
        </mxCell>
        <mxCell id="yDDBWvmq5abKbzwq8GcZ-20" value="adress" style="ellipse;whiteSpace=wrap;html=1;align=center;rounded=0;sketch=0;fontColor=#E4FDE1;strokeColor=#028090;fillColor=#F45B69;" parent="1" vertex="1">
          <mxGeometry x="480" y="255" width="100" height="40" as="geometry" />
        </mxCell>
        <mxCell id="yDDBWvmq5abKbzwq8GcZ-21" value="street" style="ellipse;whiteSpace=wrap;html=1;align=center;rounded=0;sketch=0;fontColor=#E4FDE1;strokeColor=#028090;fillColor=#F45B69;" parent="1" vertex="1">
          <mxGeometry x="570" y="305" width="100" height="40" as="geometry" />
        </mxCell>
        <mxCell id="yDDBWvmq5abKbzwq8GcZ-22" value="city" style="ellipse;whiteSpace=wrap;html=1;align=center;rounded=0;sketch=0;fontColor=#E4FDE1;strokeColor=#028090;fillColor=#F45B69;" parent="1" vertex="1">
          <mxGeometry x="450" y="335" width="100" height="40" as="geometry" />
        </mxCell>
        <mxCell id="yDDBWvmq5abKbzwq8GcZ-23" value="dorm_ID" style="ellipse;whiteSpace=wrap;html=1;align=center;fontStyle=4;rounded=0;sketch=0;fontColor=#E4FDE1;strokeColor=#028090;fillColor=#F45B69;" parent="1" vertex="1">
          <mxGeometry x="620.0044989296351" y="255.001469958609" width="100" height="40" as="geometry" />
        </mxCell>
        <mxCell id="yDDBWvmq5abKbzwq8GcZ-24" value="name" style="ellipse;whiteSpace=wrap;html=1;align=center;rounded=0;sketch=0;fontColor=#E4FDE1;strokeColor=#028090;fillColor=#F45B69;" parent="1" vertex="1">
          <mxGeometry x="735" y="215" width="100" height="40" as="geometry" />
        </mxCell>
        <mxCell id="yDDBWvmq5abKbzwq8GcZ-25" value="price" style="ellipse;whiteSpace=wrap;html=1;align=center;rounded=0;sketch=0;fontColor=#E4FDE1;strokeColor=#028090;fillColor=#F45B69;" parent="1" vertex="1">
          <mxGeometry x="460" y="145" width="100" height="40" as="geometry" />
        </mxCell>
        <mxCell id="yDDBWvmq5abKbzwq8GcZ-27" value="&lt;span style=&quot;border-bottom: 1px dotted&quot;&gt;student_ID&lt;/span&gt;" style="ellipse;whiteSpace=wrap;html=1;align=center;rounded=0;sketch=0;fontColor=#E4FDE1;strokeColor=#028090;fillColor=#F45B69;" parent="1" vertex="1">
          <mxGeometry x="720" y="120" width="100" height="40" as="geometry" />
        </mxCell>
        <mxCell id="yDDBWvmq5abKbzwq8GcZ-30" style="edgeStyle=orthogonalEdgeStyle;curved=0;rounded=1;sketch=0;orthogonalLoop=1;jettySize=auto;html=1;exitX=0.5;exitY=0;exitDx=0;exitDy=0;fontColor=#E4FDE1;strokeColor=#028090;fillColor=#F45B69;labelBackgroundColor=#114B5F;" parent="1" source="yDDBWvmq5abKbzwq8GcZ-33" edge="1">
          <mxGeometry relative="1" as="geometry">
            <mxPoint x="220" y="400" as="targetPoint" />
          </mxGeometry>
        </mxCell>
        <mxCell id="yDDBWvmq5abKbzwq8GcZ-31" style="edgeStyle=none;rounded=1;sketch=0;orthogonalLoop=1;jettySize=auto;html=1;exitX=0;exitY=0;exitDx=0;exitDy=0;entryX=1;entryY=1;entryDx=0;entryDy=0;fontColor=#E4FDE1;strokeColor=#028090;fillColor=#F45B69;labelBackgroundColor=#114B5F;" parent="1" source="yDDBWvmq5abKbzwq8GcZ-33" target="yDDBWvmq5abKbzwq8GcZ-35" edge="1">
          <mxGeometry relative="1" as="geometry" />
        </mxCell>
        <mxCell id="yDDBWvmq5abKbzwq8GcZ-32" style="edgeStyle=none;rounded=1;sketch=0;orthogonalLoop=1;jettySize=auto;html=1;exitX=1;exitY=0;exitDx=0;exitDy=0;entryX=0;entryY=1;entryDx=0;entryDy=0;fontColor=#E4FDE1;strokeColor=#028090;fillColor=#F45B69;labelBackgroundColor=#114B5F;" parent="1" source="yDDBWvmq5abKbzwq8GcZ-33" target="yDDBWvmq5abKbzwq8GcZ-36" edge="1">
          <mxGeometry relative="1" as="geometry" />
        </mxCell>
        <mxCell id="yDDBWvmq5abKbzwq8GcZ-33" value="office_of_register" style="whiteSpace=wrap;html=1;align=center;rounded=0;sketch=0;fontColor=#E4FDE1;strokeColor=#028090;fillColor=#F45B69;" parent="1" vertex="1">
          <mxGeometry x="170" y="440" width="100" height="40" as="geometry" />
        </mxCell>
        <mxCell id="yDDBWvmq5abKbzwq8GcZ-35" value="faculty_ID" style="ellipse;whiteSpace=wrap;html=1;align=center;fontStyle=4;rounded=0;sketch=0;fontColor=#E4FDE1;strokeColor=#028090;fillColor=#F45B69;" parent="1" vertex="1">
          <mxGeometry x="50" y="390" width="100" height="40" as="geometry" />
        </mxCell>
        <mxCell id="yDDBWvmq5abKbzwq8GcZ-36" value="dept_name" style="ellipse;whiteSpace=wrap;html=1;align=center;fontStyle=4;rounded=0;sketch=0;fontColor=#E4FDE1;strokeColor=#028090;fillColor=#F45B69;" parent="1" vertex="1">
          <mxGeometry x="290" y="400" width="100" height="40" as="geometry" />
        </mxCell>
        <mxCell id="yDDBWvmq5abKbzwq8GcZ-53" style="edgeStyle=none;rounded=1;sketch=0;orthogonalLoop=1;jettySize=auto;html=1;exitX=1;exitY=0;exitDx=0;exitDy=0;entryX=0;entryY=1;entryDx=0;entryDy=0;fontColor=#E4FDE1;strokeColor=#028090;fillColor=#F45B69;labelBackgroundColor=#114B5F;" parent="1" source="yDDBWvmq5abKbzwq8GcZ-55" target="yDDBWvmq5abKbzwq8GcZ-58" edge="1">
          <mxGeometry relative="1" as="geometry" />
        </mxCell>
        <mxCell id="yDDBWvmq5abKbzwq8GcZ-70" style="edgeStyle=none;rounded=1;sketch=0;orthogonalLoop=1;jettySize=auto;html=1;exitX=0.5;exitY=1;exitDx=0;exitDy=0;entryX=0.5;entryY=0;entryDx=0;entryDy=0;fontColor=#E4FDE1;strokeColor=#028090;fillColor=#F45B69;labelBackgroundColor=#114B5F;" parent="1" source="yDDBWvmq5abKbzwq8GcZ-55" target="yDDBWvmq5abKbzwq8GcZ-61" edge="1">
          <mxGeometry relative="1" as="geometry" />
        </mxCell>
        <mxCell id="yDDBWvmq5abKbzwq8GcZ-72" style="edgeStyle=none;rounded=1;sketch=0;orthogonalLoop=1;jettySize=auto;html=1;exitX=0.5;exitY=0;exitDx=0;exitDy=0;entryX=0.94;entryY=0.875;entryDx=0;entryDy=0;entryPerimeter=0;fontColor=#E4FDE1;strokeColor=#028090;fillColor=#F45B69;labelBackgroundColor=#114B5F;" parent="1" source="yDDBWvmq5abKbzwq8GcZ-55" target="yDDBWvmq5abKbzwq8GcZ-57" edge="1">
          <mxGeometry relative="1" as="geometry" />
        </mxCell>
        <mxCell id="yDDBWvmq5abKbzwq8GcZ-55" value="teacher" style="whiteSpace=wrap;html=1;align=center;rounded=0;sketch=0;fontColor=#E4FDE1;strokeColor=#028090;fillColor=#F45B69;" parent="1" vertex="1">
          <mxGeometry x="620" y="470" width="100" height="40" as="geometry" />
        </mxCell>
        <mxCell id="yDDBWvmq5abKbzwq8GcZ-57" value="teacher_ID" style="ellipse;whiteSpace=wrap;html=1;align=center;fontStyle=4;rounded=0;sketch=0;fontColor=#E4FDE1;strokeColor=#028090;fillColor=#F45B69;" parent="1" vertex="1">
          <mxGeometry x="570" y="410" width="100" height="40" as="geometry" />
        </mxCell>
        <mxCell id="yDDBWvmq5abKbzwq8GcZ-58" value="number" style="ellipse;shape=doubleEllipse;margin=3;whiteSpace=wrap;html=1;align=center;rounded=0;sketch=0;fontColor=#E4FDE1;strokeColor=#028090;fillColor=#F45B69;" parent="1" vertex="1">
          <mxGeometry x="735" y="420" width="100" height="40" as="geometry" />
        </mxCell>
        <mxCell id="yDDBWvmq5abKbzwq8GcZ-69" style="edgeStyle=none;rounded=1;sketch=0;orthogonalLoop=1;jettySize=auto;html=1;exitX=0.5;exitY=1;exitDx=0;exitDy=0;fontColor=#E4FDE1;strokeColor=#028090;fillColor=#F45B69;labelBackgroundColor=#114B5F;" parent="1" source="yDDBWvmq5abKbzwq8GcZ-61" target="yDDBWvmq5abKbzwq8GcZ-62" edge="1">
          <mxGeometry relative="1" as="geometry" />
        </mxCell>
        <mxCell id="yDDBWvmq5abKbzwq8GcZ-71" style="edgeStyle=none;rounded=1;sketch=0;orthogonalLoop=1;jettySize=auto;html=1;exitX=1;exitY=1;exitDx=0;exitDy=0;entryX=0.29;entryY=0.05;entryDx=0;entryDy=0;entryPerimeter=0;fontColor=#E4FDE1;strokeColor=#028090;fillColor=#F45B69;labelBackgroundColor=#114B5F;" parent="1" source="yDDBWvmq5abKbzwq8GcZ-61" target="yDDBWvmq5abKbzwq8GcZ-63" edge="1">
          <mxGeometry relative="1" as="geometry" />
        </mxCell>
        <mxCell id="yDDBWvmq5abKbzwq8GcZ-61" value="name" style="ellipse;whiteSpace=wrap;html=1;align=center;rounded=0;sketch=0;fontColor=#E4FDE1;strokeColor=#028090;fillColor=#F45B69;" parent="1" vertex="1">
          <mxGeometry x="610" y="530" width="100" height="40" as="geometry" />
        </mxCell>
        <mxCell id="yDDBWvmq5abKbzwq8GcZ-62" value="lastname" style="ellipse;whiteSpace=wrap;html=1;align=center;rounded=0;sketch=0;fontColor=#E4FDE1;strokeColor=#028090;fillColor=#F45B69;" parent="1" vertex="1">
          <mxGeometry x="560" y="590" width="100" height="40" as="geometry" />
        </mxCell>
        <mxCell id="yDDBWvmq5abKbzwq8GcZ-63" value="firstname" style="ellipse;whiteSpace=wrap;html=1;align=center;rounded=0;sketch=0;fontColor=#E4FDE1;strokeColor=#028090;fillColor=#F45B69;" parent="1" vertex="1">
          <mxGeometry x="700" y="590" width="100" height="40" as="geometry" />
        </mxCell>
        <mxCell id="yDDBWvmq5abKbzwq8GcZ-65" style="edgeStyle=none;rounded=1;sketch=0;orthogonalLoop=1;jettySize=auto;html=1;exitX=1;exitY=0.5;exitDx=0;exitDy=0;fontColor=#E4FDE1;strokeColor=#028090;fillColor=#F45B69;labelBackgroundColor=#114B5F;" parent="1" edge="1">
          <mxGeometry relative="1" as="geometry">
            <mxPoint x="710" y="610" as="sourcePoint" />
            <mxPoint x="710" y="610" as="targetPoint" />
          </mxGeometry>
        </mxCell>
        <mxCell id="yDDBWvmq5abKbzwq8GcZ-73" style="edgeStyle=none;rounded=1;sketch=0;orthogonalLoop=1;jettySize=auto;html=1;exitX=0;exitY=1;exitDx=0;exitDy=0;fontColor=#E4FDE1;strokeColor=#028090;fillColor=#F45B69;labelBackgroundColor=#114B5F;" parent="1" source="yDDBWvmq5abKbzwq8GcZ-78" target="yDDBWvmq5abKbzwq8GcZ-82" edge="1">
          <mxGeometry relative="1" as="geometry" />
        </mxCell>
        <mxCell id="yDDBWvmq5abKbzwq8GcZ-74" style="edgeStyle=none;rounded=1;sketch=0;orthogonalLoop=1;jettySize=auto;html=1;exitX=0;exitY=0;exitDx=0;exitDy=0;entryX=1;entryY=0.5;entryDx=0;entryDy=0;fontColor=#E4FDE1;strokeColor=#028090;fillColor=#F45B69;labelBackgroundColor=#114B5F;" parent="1" source="yDDBWvmq5abKbzwq8GcZ-78" target="yDDBWvmq5abKbzwq8GcZ-86" edge="1">
          <mxGeometry relative="1" as="geometry" />
        </mxCell>
        <mxCell id="yDDBWvmq5abKbzwq8GcZ-75" style="edgeStyle=none;rounded=1;sketch=0;orthogonalLoop=1;jettySize=auto;html=1;exitX=0.5;exitY=1;exitDx=0;exitDy=0;entryX=0.5;entryY=0;entryDx=0;entryDy=0;fontColor=#E4FDE1;strokeColor=#028090;fillColor=#F45B69;labelBackgroundColor=#114B5F;" parent="1" source="yDDBWvmq5abKbzwq8GcZ-78" target="yDDBWvmq5abKbzwq8GcZ-85" edge="1">
          <mxGeometry relative="1" as="geometry" />
        </mxCell>
        <mxCell id="8bh_Q4qHaZ9IF3187Ugb-40" style="edgeStyle=orthogonalEdgeStyle;curved=0;rounded=1;sketch=0;orthogonalLoop=1;jettySize=auto;html=1;exitX=0.5;exitY=0;exitDx=0;exitDy=0;entryX=0.5;entryY=1;entryDx=0;entryDy=0;fontColor=#E4FDE1;strokeColor=#028090;fillColor=#F45B69;" edge="1" parent="1" source="yDDBWvmq5abKbzwq8GcZ-78" target="8bh_Q4qHaZ9IF3187Ugb-39">
          <mxGeometry relative="1" as="geometry" />
        </mxCell>
        <mxCell id="yDDBWvmq5abKbzwq8GcZ-78" value="course" style="whiteSpace=wrap;html=1;align=center;rounded=0;sketch=0;fontColor=#E4FDE1;strokeColor=#028090;fillColor=#F45B69;" parent="1" vertex="1">
          <mxGeometry x="420" y="530" width="100" height="40" as="geometry" />
        </mxCell>
        <mxCell id="yDDBWvmq5abKbzwq8GcZ-80" style="edgeStyle=none;rounded=1;sketch=0;orthogonalLoop=1;jettySize=auto;html=1;exitX=0;exitY=1;exitDx=0;exitDy=0;entryX=0.5;entryY=0;entryDx=0;entryDy=0;fontColor=#E4FDE1;strokeColor=#028090;fillColor=#F45B69;labelBackgroundColor=#114B5F;" parent="1" source="yDDBWvmq5abKbzwq8GcZ-82" target="yDDBWvmq5abKbzwq8GcZ-83" edge="1">
          <mxGeometry relative="1" as="geometry" />
        </mxCell>
        <mxCell id="yDDBWvmq5abKbzwq8GcZ-81" style="edgeStyle=none;rounded=1;sketch=0;orthogonalLoop=1;jettySize=auto;html=1;exitX=0.5;exitY=1;exitDx=0;exitDy=0;entryX=0.5;entryY=0;entryDx=0;entryDy=0;fontColor=#E4FDE1;strokeColor=#028090;fillColor=#F45B69;labelBackgroundColor=#114B5F;" parent="1" source="yDDBWvmq5abKbzwq8GcZ-82" target="yDDBWvmq5abKbzwq8GcZ-84" edge="1">
          <mxGeometry relative="1" as="geometry" />
        </mxCell>
        <mxCell id="yDDBWvmq5abKbzwq8GcZ-82" value="schedule" style="ellipse;whiteSpace=wrap;html=1;align=center;rounded=0;sketch=0;fontColor=#E4FDE1;strokeColor=#028090;fillColor=#F45B69;" parent="1" vertex="1">
          <mxGeometry x="300" y="580" width="100" height="40" as="geometry" />
        </mxCell>
        <mxCell id="yDDBWvmq5abKbzwq8GcZ-83" value="day" style="ellipse;whiteSpace=wrap;html=1;align=center;rounded=0;sketch=0;fontColor=#E4FDE1;strokeColor=#028090;fillColor=#F45B69;" parent="1" vertex="1">
          <mxGeometry x="200" y="640" width="100" height="40" as="geometry" />
        </mxCell>
        <mxCell id="yDDBWvmq5abKbzwq8GcZ-84" value="time" style="ellipse;whiteSpace=wrap;html=1;align=center;rounded=0;sketch=0;fontColor=#E4FDE1;strokeColor=#028090;fillColor=#F45B69;" parent="1" vertex="1">
          <mxGeometry x="300" y="670" width="100" height="40" as="geometry" />
        </mxCell>
        <mxCell id="yDDBWvmq5abKbzwq8GcZ-85" value="name" style="ellipse;whiteSpace=wrap;html=1;align=center;rounded=0;sketch=0;fontColor=#E4FDE1;strokeColor=#028090;fillColor=#F45B69;" parent="1" vertex="1">
          <mxGeometry x="420" y="610" width="100" height="40" as="geometry" />
        </mxCell>
        <mxCell id="yDDBWvmq5abKbzwq8GcZ-86" value="couse_ID" style="ellipse;whiteSpace=wrap;html=1;align=center;fontStyle=4;rounded=0;sketch=0;fontColor=#E4FDE1;strokeColor=#028090;fillColor=#F45B69;" parent="1" vertex="1">
          <mxGeometry x="280" y="500" width="100" height="40" as="geometry" />
        </mxCell>
        <mxCell id="8bh_Q4qHaZ9IF3187Ugb-1" value="age" style="ellipse;whiteSpace=wrap;html=1;align=center;dashed=1;rounded=0;sketch=0;fontColor=#E4FDE1;strokeColor=#028090;fillColor=#F45B69;" vertex="1" parent="1">
          <mxGeometry x="295" y="790" width="100" height="40" as="geometry" />
        </mxCell>
        <mxCell id="8bh_Q4qHaZ9IF3187Ugb-2" value="student_ID" style="ellipse;whiteSpace=wrap;html=1;align=center;fontStyle=4;rounded=0;sketch=0;fontColor=#E4FDE1;strokeColor=#028090;fillColor=#F45B69;" vertex="1" parent="1">
          <mxGeometry x="165" y="770" width="100" height="40" as="geometry" />
        </mxCell>
        <mxCell id="8bh_Q4qHaZ9IF3187Ugb-3" value="" style="edgeStyle=orthogonalEdgeStyle;curved=0;rounded=1;sketch=0;orthogonalLoop=1;jettySize=auto;html=1;fontColor=#E4FDE1;strokeColor=#028090;fillColor=#F45B69;labelBackgroundColor=#114B5F;" edge="1" parent="1" source="8bh_Q4qHaZ9IF3187Ugb-8" target="8bh_Q4qHaZ9IF3187Ugb-9">
          <mxGeometry relative="1" as="geometry" />
        </mxCell>
        <mxCell id="8bh_Q4qHaZ9IF3187Ugb-4" style="edgeStyle=orthogonalEdgeStyle;rounded=0;orthogonalLoop=1;jettySize=auto;html=1;exitX=0.5;exitY=0;exitDx=0;exitDy=0;entryX=0.5;entryY=1;entryDx=0;entryDy=0;strokeColor=#028090;fontColor=#E4FDE1;labelBackgroundColor=#114B5F;" edge="1" parent="1" source="8bh_Q4qHaZ9IF3187Ugb-8" target="8bh_Q4qHaZ9IF3187Ugb-2">
          <mxGeometry relative="1" as="geometry" />
        </mxCell>
        <mxCell id="8bh_Q4qHaZ9IF3187Ugb-5" style="edgeStyle=orthogonalEdgeStyle;rounded=0;orthogonalLoop=1;jettySize=auto;html=1;exitX=0.25;exitY=1;exitDx=0;exitDy=0;entryX=0.5;entryY=0;entryDx=0;entryDy=0;strokeColor=#028090;fontColor=#E4FDE1;labelBackgroundColor=#114B5F;" edge="1" parent="1" source="8bh_Q4qHaZ9IF3187Ugb-8" target="8bh_Q4qHaZ9IF3187Ugb-12">
          <mxGeometry relative="1" as="geometry" />
        </mxCell>
        <mxCell id="8bh_Q4qHaZ9IF3187Ugb-6" style="edgeStyle=none;rounded=1;sketch=0;orthogonalLoop=1;jettySize=auto;html=1;exitX=1;exitY=0.25;exitDx=0;exitDy=0;entryX=0;entryY=1;entryDx=0;entryDy=0;fontColor=#E4FDE1;strokeColor=#028090;fillColor=#F45B69;labelBackgroundColor=#114B5F;" edge="1" parent="1" source="8bh_Q4qHaZ9IF3187Ugb-8" target="8bh_Q4qHaZ9IF3187Ugb-1">
          <mxGeometry relative="1" as="geometry" />
        </mxCell>
        <mxCell id="8bh_Q4qHaZ9IF3187Ugb-7" style="edgeStyle=none;rounded=1;sketch=0;orthogonalLoop=1;jettySize=auto;html=1;exitX=1;exitY=0.5;exitDx=0;exitDy=0;fontColor=#E4FDE1;strokeColor=#028090;fillColor=#F45B69;labelBackgroundColor=#114B5F;" edge="1" parent="1" source="8bh_Q4qHaZ9IF3187Ugb-8" target="8bh_Q4qHaZ9IF3187Ugb-13">
          <mxGeometry relative="1" as="geometry" />
        </mxCell>
        <mxCell id="8bh_Q4qHaZ9IF3187Ugb-8" value="student" style="whiteSpace=wrap;html=1;align=center;rounded=0;sketch=0;fontColor=#E4FDE1;strokeColor=#028090;fillColor=#F45B69;" vertex="1" parent="1">
          <mxGeometry x="165" y="830" width="100" height="40" as="geometry" />
        </mxCell>
        <mxCell id="8bh_Q4qHaZ9IF3187Ugb-9" value="birth_date" style="ellipse;whiteSpace=wrap;html=1;align=center;rounded=0;sketch=0;fontColor=#E4FDE1;strokeColor=#028090;fillColor=#F45B69;" vertex="1" parent="1">
          <mxGeometry x="25" y="830" width="100" height="40" as="geometry" />
        </mxCell>
        <mxCell id="8bh_Q4qHaZ9IF3187Ugb-10" style="edgeStyle=none;rounded=1;sketch=0;orthogonalLoop=1;jettySize=auto;html=1;exitX=0;exitY=1;exitDx=0;exitDy=0;fontColor=#E4FDE1;strokeColor=#028090;fillColor=#F45B69;labelBackgroundColor=#114B5F;" edge="1" parent="1" source="8bh_Q4qHaZ9IF3187Ugb-12" target="8bh_Q4qHaZ9IF3187Ugb-14">
          <mxGeometry relative="1" as="geometry" />
        </mxCell>
        <mxCell id="8bh_Q4qHaZ9IF3187Ugb-11" style="edgeStyle=none;rounded=1;sketch=0;orthogonalLoop=1;jettySize=auto;html=1;exitX=1;exitY=1;exitDx=0;exitDy=0;fontColor=#E4FDE1;strokeColor=#028090;fillColor=#F45B69;labelBackgroundColor=#114B5F;" edge="1" parent="1" source="8bh_Q4qHaZ9IF3187Ugb-12" target="8bh_Q4qHaZ9IF3187Ugb-15">
          <mxGeometry relative="1" as="geometry" />
        </mxCell>
        <mxCell id="8bh_Q4qHaZ9IF3187Ugb-12" value="name" style="ellipse;whiteSpace=wrap;html=1;align=center;rounded=0;sketch=0;fontColor=#E4FDE1;strokeColor=#028090;fillColor=#F45B69;" vertex="1" parent="1">
          <mxGeometry x="125" y="900" width="100" height="40" as="geometry" />
        </mxCell>
        <mxCell id="8bh_Q4qHaZ9IF3187Ugb-13" value="phone_number" style="ellipse;shape=doubleEllipse;margin=3;whiteSpace=wrap;html=1;align=center;rounded=0;sketch=0;fontColor=#E4FDE1;strokeColor=#028090;fillColor=#F45B69;" vertex="1" parent="1">
          <mxGeometry x="290" y="870" width="100" height="40" as="geometry" />
        </mxCell>
        <mxCell id="8bh_Q4qHaZ9IF3187Ugb-14" value="last_name" style="ellipse;whiteSpace=wrap;html=1;align=center;rounded=0;sketch=0;fontColor=#E4FDE1;strokeColor=#028090;fillColor=#F45B69;" vertex="1" parent="1">
          <mxGeometry x="35" y="960" width="100" height="40" as="geometry" />
        </mxCell>
        <mxCell id="8bh_Q4qHaZ9IF3187Ugb-15" value="first_name" style="ellipse;whiteSpace=wrap;html=1;align=center;rounded=0;sketch=0;fontColor=#E4FDE1;strokeColor=#028090;fillColor=#F45B69;" vertex="1" parent="1">
          <mxGeometry x="195" y="960" width="100" height="40" as="geometry" />
        </mxCell>
        <mxCell id="8bh_Q4qHaZ9IF3187Ugb-16" value="student" style="shape=table;startSize=30;container=1;collapsible=1;childLayout=tableLayout;fixedRows=1;rowLines=0;fontStyle=1;align=center;resizeLast=1;rounded=0;sketch=0;fontColor=#E4FDE1;strokeColor=#028090;fillColor=#F45B69;" vertex="1" parent="1">
          <mxGeometry x="420" y="735" width="180" height="150" as="geometry" />
        </mxCell>
        <mxCell id="8bh_Q4qHaZ9IF3187Ugb-17" value="" style="shape=partialRectangle;collapsible=0;dropTarget=0;pointerEvents=0;fillColor=none;top=0;left=0;bottom=1;right=0;points=[[0,0.5],[1,0.5]];portConstraint=eastwest;rounded=0;sketch=0;fontColor=#E4FDE1;strokeColor=#028090;" vertex="1" parent="8bh_Q4qHaZ9IF3187Ugb-16">
          <mxGeometry y="30" width="180" height="30" as="geometry" />
        </mxCell>
        <mxCell id="8bh_Q4qHaZ9IF3187Ugb-18" value="PK" style="shape=partialRectangle;connectable=0;fillColor=none;top=0;left=0;bottom=0;right=0;fontStyle=1;overflow=hidden;rounded=0;sketch=0;fontColor=#E4FDE1;strokeColor=#028090;" vertex="1" parent="8bh_Q4qHaZ9IF3187Ugb-17">
          <mxGeometry width="30" height="30" as="geometry">
            <mxRectangle width="30" height="30" as="alternateBounds" />
          </mxGeometry>
        </mxCell>
        <mxCell id="8bh_Q4qHaZ9IF3187Ugb-19" value="ID" style="shape=partialRectangle;connectable=0;fillColor=none;top=0;left=0;bottom=0;right=0;align=left;spacingLeft=6;fontStyle=5;overflow=hidden;rounded=0;sketch=0;fontColor=#E4FDE1;strokeColor=#028090;" vertex="1" parent="8bh_Q4qHaZ9IF3187Ugb-17">
          <mxGeometry x="30" width="150" height="30" as="geometry">
            <mxRectangle width="150" height="30" as="alternateBounds" />
          </mxGeometry>
        </mxCell>
        <mxCell id="8bh_Q4qHaZ9IF3187Ugb-20" value="" style="shape=partialRectangle;collapsible=0;dropTarget=0;pointerEvents=0;fillColor=none;top=0;left=0;bottom=0;right=0;points=[[0,0.5],[1,0.5]];portConstraint=eastwest;rounded=0;sketch=0;fontColor=#E4FDE1;strokeColor=#028090;" vertex="1" parent="8bh_Q4qHaZ9IF3187Ugb-16">
          <mxGeometry y="60" width="180" height="30" as="geometry" />
        </mxCell>
        <mxCell id="8bh_Q4qHaZ9IF3187Ugb-21" value="" style="shape=partialRectangle;connectable=0;fillColor=none;top=0;left=0;bottom=0;right=0;editable=1;overflow=hidden;rounded=0;sketch=0;fontColor=#E4FDE1;strokeColor=#028090;" vertex="1" parent="8bh_Q4qHaZ9IF3187Ugb-20">
          <mxGeometry width="30" height="30" as="geometry">
            <mxRectangle width="30" height="30" as="alternateBounds" />
          </mxGeometry>
        </mxCell>
        <mxCell id="8bh_Q4qHaZ9IF3187Ugb-22" value="birth_date" style="shape=partialRectangle;connectable=0;fillColor=none;top=0;left=0;bottom=0;right=0;align=left;spacingLeft=6;overflow=hidden;rounded=0;sketch=0;fontColor=#E4FDE1;strokeColor=#028090;" vertex="1" parent="8bh_Q4qHaZ9IF3187Ugb-20">
          <mxGeometry x="30" width="150" height="30" as="geometry">
            <mxRectangle width="150" height="30" as="alternateBounds" />
          </mxGeometry>
        </mxCell>
        <mxCell id="8bh_Q4qHaZ9IF3187Ugb-23" value="" style="shape=partialRectangle;collapsible=0;dropTarget=0;pointerEvents=0;fillColor=none;top=0;left=0;bottom=0;right=0;points=[[0,0.5],[1,0.5]];portConstraint=eastwest;rounded=0;sketch=0;fontColor=#E4FDE1;strokeColor=#028090;" vertex="1" parent="8bh_Q4qHaZ9IF3187Ugb-16">
          <mxGeometry y="90" width="180" height="30" as="geometry" />
        </mxCell>
        <mxCell id="8bh_Q4qHaZ9IF3187Ugb-24" value="" style="shape=partialRectangle;connectable=0;fillColor=none;top=0;left=0;bottom=0;right=0;editable=1;overflow=hidden;rounded=0;sketch=0;fontColor=#E4FDE1;strokeColor=#028090;" vertex="1" parent="8bh_Q4qHaZ9IF3187Ugb-23">
          <mxGeometry width="30" height="30" as="geometry">
            <mxRectangle width="30" height="30" as="alternateBounds" />
          </mxGeometry>
        </mxCell>
        <mxCell id="8bh_Q4qHaZ9IF3187Ugb-25" value="last_name" style="shape=partialRectangle;connectable=0;fillColor=none;top=0;left=0;bottom=0;right=0;align=left;spacingLeft=6;overflow=hidden;rounded=0;sketch=0;fontColor=#E4FDE1;strokeColor=#028090;" vertex="1" parent="8bh_Q4qHaZ9IF3187Ugb-23">
          <mxGeometry x="30" width="150" height="30" as="geometry">
            <mxRectangle width="150" height="30" as="alternateBounds" />
          </mxGeometry>
        </mxCell>
        <mxCell id="8bh_Q4qHaZ9IF3187Ugb-26" value="" style="shape=partialRectangle;collapsible=0;dropTarget=0;pointerEvents=0;fillColor=none;top=0;left=0;bottom=0;right=0;points=[[0,0.5],[1,0.5]];portConstraint=eastwest;rounded=0;sketch=0;fontColor=#E4FDE1;strokeColor=#028090;" vertex="1" parent="8bh_Q4qHaZ9IF3187Ugb-16">
          <mxGeometry y="120" width="180" height="30" as="geometry" />
        </mxCell>
        <mxCell id="8bh_Q4qHaZ9IF3187Ugb-27" value="" style="shape=partialRectangle;connectable=0;fillColor=none;top=0;left=0;bottom=0;right=0;editable=1;overflow=hidden;rounded=0;sketch=0;fontColor=#E4FDE1;strokeColor=#028090;" vertex="1" parent="8bh_Q4qHaZ9IF3187Ugb-26">
          <mxGeometry width="30" height="30" as="geometry">
            <mxRectangle width="30" height="30" as="alternateBounds" />
          </mxGeometry>
        </mxCell>
        <mxCell id="8bh_Q4qHaZ9IF3187Ugb-28" value="first_name" style="shape=partialRectangle;connectable=0;fillColor=none;top=0;left=0;bottom=0;right=0;align=left;spacingLeft=6;overflow=hidden;rounded=0;sketch=0;fontColor=#E4FDE1;strokeColor=#028090;" vertex="1" parent="8bh_Q4qHaZ9IF3187Ugb-26">
          <mxGeometry x="30" width="150" height="30" as="geometry">
            <mxRectangle width="150" height="30" as="alternateBounds" />
          </mxGeometry>
        </mxCell>
        <mxCell id="8bh_Q4qHaZ9IF3187Ugb-29" value="" style="shape=partialRectangle;connectable=0;fillColor=none;top=0;left=0;bottom=0;right=0;align=left;spacingLeft=6;overflow=hidden;rounded=0;sketch=0;fontColor=#E4FDE1;strokeColor=#028090;" vertex="1" parent="1">
          <mxGeometry x="510" y="880" width="150" height="30" as="geometry">
            <mxRectangle width="150" height="30" as="alternateBounds" />
          </mxGeometry>
        </mxCell>
        <mxCell id="8bh_Q4qHaZ9IF3187Ugb-30" value="phone_number" style="shape=table;startSize=30;container=1;collapsible=1;childLayout=tableLayout;fixedRows=1;rowLines=0;fontStyle=1;align=center;resizeLast=1;rounded=0;sketch=0;fontColor=#E4FDE1;strokeColor=#028090;fillColor=#F45B69;" vertex="1" parent="1">
          <mxGeometry x="650" y="850" width="180" height="90" as="geometry" />
        </mxCell>
        <mxCell id="8bh_Q4qHaZ9IF3187Ugb-31" value="" style="shape=partialRectangle;collapsible=0;dropTarget=0;pointerEvents=0;fillColor=none;top=0;left=0;bottom=1;right=0;points=[[0,0.5],[1,0.5]];portConstraint=eastwest;rounded=0;sketch=0;fontColor=#E4FDE1;strokeColor=#028090;" vertex="1" parent="8bh_Q4qHaZ9IF3187Ugb-30">
          <mxGeometry y="30" width="180" height="30" as="geometry" />
        </mxCell>
        <mxCell id="8bh_Q4qHaZ9IF3187Ugb-32" value="PK" style="shape=partialRectangle;connectable=0;fillColor=none;top=0;left=0;bottom=0;right=0;fontStyle=1;overflow=hidden;rounded=0;sketch=0;fontColor=#E4FDE1;strokeColor=#028090;" vertex="1" parent="8bh_Q4qHaZ9IF3187Ugb-31">
          <mxGeometry width="30" height="30" as="geometry">
            <mxRectangle width="30" height="30" as="alternateBounds" />
          </mxGeometry>
        </mxCell>
        <mxCell id="8bh_Q4qHaZ9IF3187Ugb-33" value="phonenumber" style="shape=partialRectangle;connectable=0;fillColor=none;top=0;left=0;bottom=0;right=0;align=left;spacingLeft=6;fontStyle=5;overflow=hidden;rounded=0;sketch=0;fontColor=#E4FDE1;strokeColor=#028090;" vertex="1" parent="8bh_Q4qHaZ9IF3187Ugb-31">
          <mxGeometry x="30" width="150" height="30" as="geometry">
            <mxRectangle width="150" height="30" as="alternateBounds" />
          </mxGeometry>
        </mxCell>
        <mxCell id="8bh_Q4qHaZ9IF3187Ugb-34" value="" style="shape=partialRectangle;collapsible=0;dropTarget=0;pointerEvents=0;fillColor=none;top=0;left=0;bottom=0;right=0;points=[[0,0.5],[1,0.5]];portConstraint=eastwest;rounded=0;sketch=0;fontColor=#E4FDE1;strokeColor=#028090;" vertex="1" parent="8bh_Q4qHaZ9IF3187Ugb-30">
          <mxGeometry y="60" width="180" height="30" as="geometry" />
        </mxCell>
        <mxCell id="8bh_Q4qHaZ9IF3187Ugb-35" value="FK" style="shape=partialRectangle;connectable=0;fillColor=none;top=0;left=0;bottom=0;right=0;fontStyle=0;overflow=hidden;rounded=0;sketch=0;fontColor=#E4FDE1;strokeColor=#028090;" vertex="1" parent="8bh_Q4qHaZ9IF3187Ugb-34">
          <mxGeometry width="30" height="30" as="geometry">
            <mxRectangle width="30" height="30" as="alternateBounds" />
          </mxGeometry>
        </mxCell>
        <mxCell id="8bh_Q4qHaZ9IF3187Ugb-36" value="ID" style="shape=partialRectangle;connectable=0;fillColor=none;top=0;left=0;bottom=0;right=0;align=left;spacingLeft=6;fontStyle=0;overflow=hidden;rounded=0;sketch=0;fontColor=#E4FDE1;strokeColor=#028090;" vertex="1" parent="8bh_Q4qHaZ9IF3187Ugb-34">
          <mxGeometry x="30" width="150" height="30" as="geometry">
            <mxRectangle width="150" height="30" as="alternateBounds" />
          </mxGeometry>
        </mxCell>
        <mxCell id="8bh_Q4qHaZ9IF3187Ugb-37" style="edgeStyle=orthogonalEdgeStyle;curved=0;rounded=1;sketch=0;orthogonalLoop=1;jettySize=auto;html=1;exitX=0;exitY=0.5;exitDx=0;exitDy=0;entryX=1;entryY=0.5;entryDx=0;entryDy=0;fontColor=#E4FDE1;strokeColor=#028090;fillColor=#F45B69;labelBackgroundColor=#114B5F;" edge="1" parent="1" source="8bh_Q4qHaZ9IF3187Ugb-34" target="8bh_Q4qHaZ9IF3187Ugb-17">
          <mxGeometry relative="1" as="geometry" />
        </mxCell>
        <mxCell id="8bh_Q4qHaZ9IF3187Ugb-38" value="&lt;span style=&quot;border-bottom: 1px dotted&quot;&gt;student_ID&lt;/span&gt;" style="ellipse;whiteSpace=wrap;html=1;align=center;fillColor=#F45B69;strokeColor=#028090;fontColor=#E4FDE1;" vertex="1" parent="1">
          <mxGeometry x="170" y="360" width="100" height="40" as="geometry" />
        </mxCell>
        <mxCell id="8bh_Q4qHaZ9IF3187Ugb-39" value="&lt;span style=&quot;border-bottom: 1px dotted&quot;&gt;student_ID&lt;/span&gt;" style="ellipse;whiteSpace=wrap;html=1;align=center;rounded=0;sketch=0;fontColor=#E4FDE1;strokeColor=#028090;fillColor=#F45B69;" vertex="1" parent="1">
          <mxGeometry x="420" y="450" width="100" height="40" as="geometry" />
        </mxCell>
      </root>
    </mxGraphModel>
  </diagram>
</mxfile>
